# Blender 3.4.1
# www.blender.org
mtllib book9.mtl
o Pages.002
v -1.122123 3.120495 -2.689650
v -0.967749 -3.185393 -2.666252
v 0.959599 3.137421 -2.728991
v 1.113973 -3.168467 -2.705594
v -1.122549 3.135041 2.197239
v -0.968175 -3.170847 2.220637
v 0.959173 3.151967 2.157897
v 1.113547 -3.153921 2.181295
v -0.505970 -3.205912 2.485031
v -0.643062 3.174216 -2.403014
v -0.660343 3.099976 2.461634
v -0.488689 -3.131672 -2.379617
v 0.600663 -3.202408 2.464055
v 0.483309 3.173474 -2.439758
v 0.446289 3.103479 2.440657
v 0.637683 -3.132414 -2.416360
v -0.098212 3.125025 2.448065
v 0.094646 -3.137456 -2.267176
v 0.056162 -3.180863 2.471462
v -0.059727 3.168432 -2.290574
v -1.020065 -0.168100 -2.694726
v 1.061231 -0.136629 2.152822
v 1.061657 -0.151175 -2.734067
v -1.020491 -0.153555 2.192163
v -0.541004 -0.114379 -2.408090
v -0.558286 -0.188620 2.456558
v 0.548347 -0.185117 2.435581
v 0.585367 -0.115122 -2.444834
v 0.042330 -0.120164 -2.295650
v 0.003846 -0.163571 2.442989
v -0.788338 -3.170378 0.667736
v 0.821302 3.161403 0.611628
v 0.939249 -3.148777 0.641032
v -0.942711 3.135510 0.644338
v -0.370173 -3.154197 0.654362
v -0.515750 3.141943 0.636748
v 0.499525 -3.171977 0.639631
v 0.417615 3.146997 0.636203
v -0.075247 3.166600 0.626412
v 0.079126 -3.139288 0.649810
v -0.840654 -0.153086 0.639263
v 0.923360 -0.127193 0.606552
v 0.933641 -3.163465 -0.983844
v -0.948320 3.120821 -0.980537
v -0.521359 3.127254 -0.988128
v 0.412006 3.132308 -0.988673
v -0.080856 3.151911 -0.998463
v -0.846262 -0.167774 -0.985613
v -0.793946 -3.185066 -0.957140
v 0.815694 3.146713 -1.013248
v -0.375782 -3.168885 -0.970514
v 0.493916 -3.186666 -0.985245
v 0.073518 -3.153977 -0.975066
v 0.917752 -0.141882 -1.018324
vn -0.0048 1.0000 0.0065
vn 0.1914 0.6318 0.7511
vn 0.6465 0.6595 0.3835
vn 0.6368 0.7705 -0.0276
vn 0.9986 0.0194 -0.0490
vn 0.8750 0.0212 0.4836
vn -0.2417 -0.0017 0.9703
vn -0.2018 0.6215 0.7570
vn -0.6837 0.6317 0.3654
vn -0.8834 -0.0198 0.4682
vn -0.0195 -0.9998 -0.0072
vn -0.2816 -0.7292 -0.6237
vn 0.4207 -0.5631 -0.7113
vn 0.6762 -0.7362 0.0265
vn -0.3957 -0.0132 -0.9183
vn -0.2436 0.7563 -0.6071
vn 0.3738 0.5495 -0.7472
vn 0.4777 0.0048 -0.8785
vn -0.9983 -0.0239 0.0527
vn -0.6976 0.7153 0.0398
vn -0.4107 0.5325 -0.7401
vn -0.4808 -0.0156 -0.8767
vn 0.1892 0.7804 -0.5960
vn 0.3543 0.0052 -0.9351
vn -0.6356 -0.7713 0.0316
vn -0.3970 -0.5813 -0.7103
vn 0.2772 -0.7250 -0.6305
vn 0.0411 -0.9991 -0.0056
vn 0.0188 0.0042 0.9998
vn 0.0091 0.7071 0.7071
vn -0.6721 0.7396 -0.0353
vn -0.0242 0.9997 0.0046
vn 0.2539 0.0101 0.9672
vn -0.0394 -0.0050 -0.9992
vn -0.0234 0.7707 -0.6368
vn -0.0167 -0.9998 -0.0074
vn -0.0347 -0.7599 -0.6491
vn -0.0062 1.0000 0.0063
vn 0.1873 -0.6678 0.7204
vn 0.0083 -0.6985 0.7156
vn 0.7127 -0.5913 0.3773
vn -0.1705 -0.6660 0.7262
vn -0.6922 -0.6201 0.3694
vn 0.6959 -0.7172 -0.0372
vn 0.9989 0.0198 0.0428
vn -0.9982 -0.0244 -0.0556
vn -0.6565 -0.7532 -0.0407
vn 0.0246 -0.9997 -0.0057
vn -0.0155 -0.9999 -0.0061
vn -0.0409 0.9991 0.0070
vn -0.0051 1.0000 0.0072
vn 0.0117 0.9999 0.0036
vn -0.0038 -1.0000 -0.0041
vn 0.6589 0.7517 0.0278
vt 0.392673 0.741299
vt 0.537754 0.698757
vt 0.540926 0.312792
vt 0.003928 0.739884
vt 0.402449 0.698758
vt 0.394224 0.001955
vt 0.394712 0.312953
vt 0.004370 0.000315
vt 0.530786 0.984217
vt 0.394527 0.436344
vt 0.003647 0.435004
vt 0.530130 0.016270
vt 0.420982 0.984216
vt 0.393033 0.307451
vt 0.002745 0.306212
vt 0.416594 0.016503
vt 0.000912 0.403872
vt 0.505212 0.000092
vt 0.506635 0.710249
vt 0.391817 0.405247
vt 0.506717 0.999908
vt 0.506925 0.302781
vt 0.000092 0.340503
vt 0.444930 0.000238
vt 0.433770 0.709514
vt 0.448413 0.999908
vt 0.390651 0.341814
vt 0.428506 0.303517
vt 0.477092 0.999701
vt 0.392661 0.372991
vt 0.466609 0.298113
vt 0.001948 0.371664
vt 0.474580 0.000382
vt 0.469007 0.714042
vt 0.531123 0.501193
vt 0.189872 0.741299
vt 0.189457 0.305948
vt 0.404128 0.500267
vt 0.190878 0.000092
vt 0.190656 0.435184
vt 0.499362 0.503630
vt 0.187931 0.403909
vt 0.186937 0.340316
vt 0.435962 0.502456
vt 0.467232 0.502536
vt 0.188866 0.371561
vt 0.004133 0.532046
vt 0.518690 0.108166
vt 0.394450 0.210664
vt 0.426411 0.895386
vt 0.003987 0.209551
vt 0.424350 0.108009
vt 0.519507 0.895359
vt 0.393734 0.533403
vt 0.495878 0.108608
vt 0.496991 0.895319
vt 0.448355 0.108627
vt 0.447741 0.896301
vt 0.473717 0.895147
vt 0.471371 0.108484
vt 0.190508 0.533074
vt 0.190910 0.209010
vt 0.003918 0.108192
vt 0.422188 0.204363
vt 0.518451 0.802122
vt 0.392573 0.634507
vt 0.495669 0.801158
vt 0.445902 0.802221
vt 0.472105 0.800734
vt 0.189647 0.634458
vt 0.003564 0.633126
vt 0.517815 0.204505
vt 0.424134 0.802178
vt 0.394240 0.109292
vt 0.494907 0.206108
vt 0.446437 0.206134
vt 0.469929 0.206291
vt 0.190778 0.107508
s 1
usemtl Material.056
f 38/58/1 15/26/2 7/13/3 32/50/4
f 42/62/5 32/49/4 7/14/3 22/37/6
f 26/42/7 11/20/8 5/10/9 24/40/10
f 52/76/11 16/28/12 4/7/13 43/64/14
f 28/44/15 14/25/16 3/5/17 23/38/18
f 48/70/19 44/66/20 1/1/21 21/36/22
f 21/35/22 1/2/21 10/19/23 25/41/24
f 49/72/25 2/3/26 12/22/27 51/75/28
f 30/46/29 17/30/30 11/20/8 26/42/7
f 34/53/31 5/9/9 11/21/8 36/56/32
f 22/37/6 7/14/3 15/27/2 27/43/33
f 29/45/34 20/34/35 14/25/16 28/44/15
f 53/77/36 18/31/37 16/28/12 52/76/11
f 39/59/38 17/29/30 15/26/2 38/58/1
f 36/56/32 11/21/8 17/29/30 39/59/38
f 51/75/28 12/22/27 18/31/37 53/77/36
f 25/41/24 10/19/23 20/34/35 29/45/34
f 27/43/33 15/27/2 17/30/30 30/46/29
f 13/23/39 27/43/33 30/46/29 19/32/40
f 12/22/27 25/41/24 29/45/34 18/31/37
f 18/31/37 29/45/34 28/44/15 16/28/12
f 8/15/41 22/37/6 27/43/33 13/23/39
f 19/32/40 30/46/29 26/42/7 9/17/42
f 2/3/26 21/35/22 25/41/24 12/22/27
f 49/71/25 48/70/19 21/36/22 2/4/26
f 16/28/12 28/44/15 23/38/18 4/7/13
f 9/17/42 26/42/7 24/40/10 6/11/43
f 33/51/44 42/62/5 22/37/6 8/15/41
f 43/63/14 54/78/45 42/62/5 33/51/44
f 6/11/43 24/40/10 41/61/46 31/47/47
f 9/18/42 35/55/48 40/60/49 19/33/40
f 45/67/50 36/56/32 39/59/38 47/69/51
f 47/69/51 39/59/38 38/58/1 46/68/52
f 19/33/40 40/60/49 37/57/53 13/24/39
f 44/65/20 34/53/31 36/56/32 45/67/50
f 6/12/43 31/48/47 35/55/48 9/18/42
f 24/40/10 5/10/9 34/54/31 41/61/46
f 13/24/39 37/57/53 33/52/44 8/16/41
f 54/78/45 50/74/54 32/49/4 42/62/5
f 46/68/52 38/58/1 32/50/4 50/73/54
f 14/25/16 46/68/52 50/73/54 3/5/17
f 23/39/18 3/6/17 50/74/54 54/78/45
f 1/2/21 44/65/20 45/67/50 10/19/23
f 20/34/35 47/69/51 46/68/52 14/25/16
f 10/19/23 45/67/50 47/69/51 20/34/35
f 4/8/13 23/39/18 54/78/45 43/63/14
f 31/47/47 41/61/46 48/70/19 49/71/25
f 35/55/48 51/75/28 53/77/36 40/60/49
f 40/60/49 53/77/36 52/76/11 37/57/53
f 31/48/47 49/72/25 51/75/28 35/55/48
f 41/61/46 34/54/31 44/66/20 48/70/19
f 37/57/53 52/76/11 43/64/14 33/52/44
o Cover.001
v -1.198269 3.449401 -3.053774
v -1.149879 -3.512720 -3.054099
v 1.038951 3.434347 -3.110892
v 1.200111 -3.505039 -3.124615
v -1.191402 3.477100 2.172951
v -1.110726 -3.395809 2.224686
v 0.982414 3.516264 2.155192
v 1.062166 -3.456341 2.138523
v -0.530903 -3.421489 2.499538
v -0.612032 3.460994 2.466690
v 0.500048 -3.427371 2.468105
v 0.487361 3.463400 2.452388
v -0.047320 3.473342 2.509524
v -0.059007 -3.405825 2.475513
v -1.154667 -0.193012 -3.067424
v 1.063786 -0.125025 1.992648
v 1.232209 -0.194119 -3.149095
v -1.072286 -0.063396 2.072138
v -0.654335 -0.205306 2.394909
v 0.481878 -0.201802 2.373933
v -0.077178 -0.180257 2.381341
v -0.868187 -3.472797 0.623276
v 0.896774 3.509720 0.673087
v 0.947188 -3.449134 0.587815
v -1.049926 3.489487 0.713045
v -0.794825 -0.066242 0.586096
v 0.911080 -0.049736 0.542930
v 0.932025 -3.462669 -1.025336
v -1.026103 3.483354 -0.902808
v -0.870321 -0.167774 -1.096059
v -0.865094 -3.485620 -1.016819
v 0.891016 3.495031 -0.951789
v 0.940846 -0.141882 -1.128769
v -1.425282 3.449389 -3.043784
v -1.394524 3.472131 2.204769
v -1.276939 3.489475 0.723035
v -1.253116 3.483342 -0.892817
v -1.427560 -0.209049 -3.033638
v -1.322101 -0.169591 2.115503
v -1.149887 -0.169127 0.641879
v -1.155645 -0.183815 -0.982997
v -1.429247 -3.534244 -2.968907
v -1.306890 -3.496011 2.244787
v -1.102923 -3.494320 0.705101
v -1.099800 -3.507995 -0.945230
v -0.634134 3.455884 2.636770
v 0.502871 3.436558 2.648009
v -0.031810 3.446500 2.705145
v -0.566701 -0.193397 2.565730
v 0.569512 -0.189894 2.544754
v 0.010456 -0.168348 2.552162
v -0.607755 -3.501688 2.647084
v 0.574293 -3.498186 2.626953
v -0.030598 -3.476638 2.633516
v 1.419771 -3.512339 -3.097676
v 1.327661 -3.463643 2.166308
v 1.166847 -3.456433 0.614755
v 1.151685 -3.469969 -0.998396
v 1.354440 -0.161065 2.077671
v 1.498489 -0.218555 -3.113801
v 1.200401 -0.140458 0.641531
v 1.194643 -0.155147 -0.983345
v 1.300078 3.423005 -3.083261
v 1.243541 3.504922 2.182823
v 1.157901 3.498377 0.700718
v 1.152143 3.483688 -0.924158
vn 0.9992 0.0081 -0.0388
vn 0.6608 -0.7503 -0.0203
vn 0.4424 -0.8823 0.1607
vn 0.8910 0.0073 0.4540
vn -0.2667 0.0044 0.9638
vn -0.1807 -0.7913 0.5841
vn -0.4325 -0.8817 0.1884
vn -0.9007 -0.0132 0.4343
vn -0.9971 -0.0185 0.0738
vn -0.6619 -0.7480 0.0484
vn -0.4705 -0.5986 0.6484
vn -0.5611 -0.0058 0.8277
vn 0.0204 0.0005 0.9998
vn 0.0042 -0.7779 0.6284
vn 0.2006 -0.8173 0.5401
vn 0.2896 0.0043 0.9572
vn 0.2056 0.6515 0.7303
vn 0.0191 0.5363 0.8438
vn 0.4856 0.8133 0.3206
vn -0.1966 0.5734 0.7953
vn -0.7155 0.6968 0.0504
vn -0.4548 0.5388 0.7091
vn -0.6091 0.6817 0.4053
vn 0.6891 0.7240 -0.0313
vn 0.6973 0.7158 0.0376
vn 0.9979 0.0101 0.0638
vn -0.9976 -0.0215 -0.0661
vn -0.7382 0.6715 -0.0641
vn -0.6555 -0.7539 -0.0438
vn 0.6619 -0.7479 0.0505
vn 0.5622 0.0050 0.8270
vn 0.4729 -0.5881 0.6562
vn 0.4685 0.5844 0.6625
vn 0.6719 -0.7399 0.0326
vn 0.6654 -0.7461 -0.0252
vn 0.6824 -0.6231 -0.3822
vn 0.5953 -0.5825 0.5535
vn 0.5571 0.8304 0.0097
vn 0.5933 0.7382 -0.3211
vn 0.6067 0.7931 -0.0540
vn 0.5879 0.6614 0.4657
vn 0.7644 0.0110 0.6447
vn 0.9979 0.0164 -0.0626
vn 0.8859 0.0112 -0.4638
vn 0.9982 0.0210 0.0559
vn -0.2266 -0.5871 -0.7772
vn -0.0114 -0.6243 -0.7811
vn 0.2120 -0.6294 -0.7476
vn -0.0056 0.8260 -0.5636
vn -0.1819 0.7405 -0.6470
vn 0.1345 0.7894 -0.5990
vn -0.6432 0.7649 0.0349
vn -0.6347 0.7710 -0.0523
vn -0.6700 0.6568 -0.3462
vn -0.5891 0.6243 0.5130
vn -0.6755 -0.7366 0.0337
vn -0.6663 -0.6419 -0.3796
vn -0.6712 -0.7410 -0.0192
vn -0.5989 -0.5901 0.5414
vn -0.7580 -0.0063 0.6523
vn -0.9984 -0.0037 -0.0573
vn 0.2615 0.0010 -0.9652
vn -0.9988 -0.0033 0.0491
vn -0.8874 -0.0061 -0.4610
vn -0.2844 -0.0003 -0.9587
vn -0.0118 0.0051 -0.9999
vt 0.749408 0.683549
vt 0.891497 0.315216
vt 0.379420 0.683549
vt 0.882336 0.687868
vt 0.751546 0.004137
vt 0.784719 0.317964
vt 0.381037 0.000141
vt 0.772522 0.686187
vt 0.755647 0.402833
vt 0.889876 0.028912
vt 0.381669 0.398968
vt 0.891891 0.971330
vt 0.757025 0.287938
vt 0.783181 0.031044
vt 0.378830 0.284598
vt 0.788298 0.974235
vt 0.380110 0.367198
vt 0.866729 0.987990
vt 0.754704 0.370750
vt 0.861283 0.013031
vt 0.379922 0.317157
vt 0.817167 0.990231
vt 0.754575 0.316910
vt 0.807307 0.014302
vt 0.755322 0.343143
vt 0.833546 0.010971
vt 0.381079 0.344257
vt 0.844079 0.988535
vt 0.555893 0.683187
vt 0.888269 0.512672
vt 0.559524 0.282225
vt 0.557921 0.000770
vt 0.770399 0.511164
vt 0.563120 0.401282
vt 0.555219 0.374006
vt 0.555341 0.317823
vt 0.556551 0.345444
vt 0.379858 0.485302
vt 0.879240 0.886648
vt 0.755746 0.208011
vt 0.788005 0.112220
vt 0.381386 0.201025
vt 0.789958 0.888569
vt 0.753739 0.481098
vt 0.883669 0.109138
vt 0.562581 0.484732
vt 0.564241 0.201981
vt 0.381938 0.114081
vt 0.787301 0.800078
vt 0.752020 0.567936
vt 0.883211 0.197867
vt 0.557127 0.576111
vt 0.380040 0.573383
vt 0.875732 0.797144
vt 0.754655 0.120485
vt 0.789131 0.201167
vt 0.559986 0.110897
vt 0.902609 0.314978
vt 0.003687 0.712270
vt 0.899834 0.027062
vt 0.000141 0.429674
vt 0.894812 0.108494
vt 0.000648 0.509419
vt 0.894351 0.197279
vt 0.001677 0.596385
vt 0.901814 0.513821
vt 0.198502 0.711741
vt 0.197425 0.430473
vt 0.197244 0.512019
vt 0.197719 0.600352
vt 0.896207 0.690547
vt 0.375427 0.709980
vt 0.902609 0.972852
vt 0.377510 0.428373
vt 0.890948 0.890819
vt 0.375667 0.511437
vt 0.887353 0.800436
vt 0.375217 0.600147
vt 0.862279 0.003674
vt 0.001187 0.386228
vt 0.806439 0.003459
vt 0.002965 0.330543
vt 0.832680 0.000141
vt 0.001949 0.356720
vt 0.199079 0.385741
vt 0.199417 0.329905
vt 0.197980 0.357343
vt 0.871495 0.996586
vt 0.378465 0.388244
vt 0.813842 0.999859
vt 0.378548 0.331027
vt 0.843422 0.998044
vt 0.377203 0.360301
vt 0.761861 0.687229
vt 0.378548 0.001415
vt 0.775283 0.976489
vt 0.376465 0.286959
vt 0.779224 0.890507
vt 0.375629 0.202739
vt 0.776587 0.801830
vt 0.376295 0.115603
vt 0.198366 0.283653
vt 0.757306 0.512328
vt 0.202139 0.000141
vt 0.197427 0.204766
vt 0.198403 0.116422
vt 0.772022 0.317492
vt 0.007119 0.001689
vt 0.770356 0.029581
vt 0.000391 0.286519
vt 0.775169 0.110822
vt 0.001700 0.206196
vt 0.776359 0.199885
vt 0.003201 0.118417
s 1
usemtl Material.057
f 81/125/55 77/118/56 61/91/57 70/109/58
f 73/113/59 64/97/60 59/87/61 72/112/62
f 84/130/63 83/128/64 55/79/65 69/107/66
f 75/115/67 67/103/68 64/97/60 73/113/59
f 70/109/58 61/91/57 66/101/69 74/114/70
f 74/114/70 66/101/69 67/103/68 75/115/67
f 65/99/71 74/114/70 75/115/67 68/105/72
f 62/93/73 70/109/58 74/114/70 65/99/71
f 68/105/72 75/115/67 73/113/59 63/95/74
f 85/131/75 84/130/63 69/107/66 56/81/76
f 63/95/74 73/113/59 72/112/62 60/89/77
f 78/120/78 81/125/55 70/109/58 62/93/73
f 82/126/79 87/135/80 81/125/55 78/120/78
f 60/89/77 72/112/62 80/124/81 76/116/82
f 72/112/62 59/87/61 79/122/83 80/124/81
f 87/135/80 86/133/84 77/118/56 81/125/55
f 71/110/85 57/83/86 86/133/84 87/135/80
f 58/85/87 71/110/85 87/135/80 82/126/79
f 76/116/82 80/124/81 84/130/63 85/131/75
f 80/124/81 79/122/83 83/128/64 84/130/63
f 83/129/64 79/123/83 90/140/88 91/142/89
f 79/123/83 59/88/61 89/138/90 90/140/88
f 55/80/65 83/129/64 91/142/89 88/136/91
f 60/90/77 76/117/82 98/153/92 97/151/93
f 76/117/82 85/132/75 99/155/94 98/153/92
f 85/132/75 56/82/76 96/149/95 99/155/94
f 69/108/66 55/80/65 88/136/91 92/144/96
f 56/82/76 69/108/66 92/144/96 96/149/95
f 88/137/91 91/143/89 95/148/97 92/145/96
f 95/148/97 99/156/94 96/150/95 92/145/96
f 90/141/88 89/139/90 93/146/98 94/147/99
f 93/146/98 97/152/93 98/154/92 94/147/99
f 91/143/89 90/141/88 94/147/99 95/148/97
f 94/147/99 98/154/92 99/156/94 95/148/97
f 67/104/68 66/102/69 101/159/100 102/161/101
f 64/98/60 67/104/68 102/161/101 100/157/102
f 65/100/71 68/106/72 108/170/103 107/168/104
f 68/106/72 63/96/74 106/166/105 108/170/103
f 63/96/74 60/90/77 97/151/93 106/166/105
f 82/127/79 78/121/78 111/176/106 112/178/107
f 78/121/78 62/94/73 110/174/108 111/176/106
f 58/86/87 82/127/79 112/178/107 109/172/109
f 61/92/57 77/119/56 119/189/110 118/187/111
f 77/119/56 86/134/84 120/191/112 119/189/110
f 86/134/84 57/84/86 117/185/113 120/191/112
f 57/84/86 71/111/85 114/181/114 117/185/113
f 71/111/85 58/86/87 109/172/109 114/181/114
f 116/184/115 120/192/112 117/186/113 114/182/114
f 62/94/73 65/100/71 107/168/104 110/174/108
f 64/98/60 100/157/102 89/138/90 59/88/61
f 61/92/57 118/187/111 101/159/100 66/102/69
f 89/139/90 100/158/102 103/163/116 93/146/98
f 112/179/107 116/184/115 114/182/114 109/173/109
f 111/177/106 115/183/117 116/184/115 112/179/107
f 110/175/108 113/180/118 115/183/117 111/177/106
f 110/175/108 107/169/104 104/164/119 113/180/118
f 93/146/98 103/163/116 106/167/105 97/152/93
f 105/165/120 108/171/103 106/167/105 103/163/116
f 104/164/119 107/169/104 108/171/103 105/165/120
f 100/158/102 102/162/101 105/165/120 103/163/116
f 102/162/101 101/160/100 104/164/119 105/165/120
f 118/188/111 113/180/118 104/164/119 101/160/100
f 113/180/118 118/188/111 119/190/110 115/183/117
f 115/183/117 119/190/110 120/192/112 116/184/115
l 103 73
l 94 80
l 116 87
l 93 72
l 84 95
l 74 104
l 113 70
l 75 105
l 81 115
